<?xml version="1.0" encoding="UTF-8" standalone="no"?>
<svg
   xmlns:dc="http://purl.org/dc/elements/1.1/"
   xmlns:cc="http://web.resource.org/cc/"
   xmlns:rdf="http://www.w3.org/1999/02/22-rdf-syntax-ns#"
   xmlns:svg="http://www.w3.org/2000/svg"
   xmlns="http://www.w3.org/2000/svg"
   xmlns:sodipodi="http://inkscape.sourceforge.net/DTD/sodipodi-0.dtd"
   xmlns:inkscape="http://www.inkscape.org/namespaces/inkscape"
   sodipodi:docbase="/home/danny/work/flat/SVG/mono/scalable/actions"
   sodipodi:docname="groupwise_online.svg"
   inkscape:version="0.41"
   sodipodi:version="0.32"
   id="svg1"
   x="0"
   y="0"
   version="1.0"
   _SVGFile__filename="oldscale/apps/gxmessage.svg"
   width="60"
   height="60">
  <sodipodi:namedview
     inkscape:current-layer="svg1"
     inkscape:window-y="0"
     inkscape:window-x="0"
     inkscape:window-height="691"
     inkscape:window-width="1020"
     inkscape:cy="17.661077"
     inkscape:cx="55.246841"
     inkscape:zoom="5.9388424"
     inkscape:pageshadow="2"
     inkscape:pageopacity="0.0"
     borderopacity="1.0"
     bordercolor="#666666"
     pagecolor="#ffffff"
     id="base" />
  <defs
     id="defs3" />
  <path
     id="path1087"
     d="M 29.999996,10.086430 C 43.971253,10.086430 55.312772,15.657791 55.312772,22.518672 C 55.312772,29.379550 43.971253,34.950920 29.999996,34.950920 C 27.144642,34.950920 24.432368,34.662340 21.871220,34.233680 C 24.186951,45.452790 31.972422,49.654450 31.972422,49.654450 C 31.972422,49.654450 24.100462,52.276590 14.609114,40.838310 C 11.261794,36.484380 10.328392,32.742620 9.9470251,30.049750 C 6.6838893,27.956890 4.6872282,25.356210 4.6872282,22.518672 C 4.6872282,15.657791 16.028747,10.086430 29.999996,10.086430 z "
     style="font-size:12.000000;fill:none;fill-opacity:1.0000000;fill-rule:evenodd;stroke:#ffffff;stroke-width:8.1250000;stroke-linecap:round;stroke-linejoin:round;stroke-miterlimit:4.0000000;stroke-opacity:1.0000000;" />
  <path
     id="path672"
     d="M 29.999996,10.086430 C 43.971253,10.086430 55.312772,15.657791 55.312772,22.518672 C 55.312772,29.379555 43.971253,34.950919 29.999996,34.950919 C 27.144642,34.950919 24.432368,34.662337 21.871220,34.233677 C 24.186951,45.452788 31.972422,49.654448 31.972422,49.654448 C 31.972422,49.654448 24.100462,52.276591 14.609114,40.838310 C 11.261794,36.484383 10.328392,32.742623 9.9470251,30.049746 C 6.6838893,27.956893 4.6872282,25.356214 4.6872282,22.518672 C 4.6872282,15.657791 16.028747,10.086430 29.999996,10.086430 z "
     style="font-size:12.000000;fill:#ffffff;fill-opacity:1.0000000;fill-rule:evenodd;stroke:#000000;stroke-width:3.1249988;stroke-linecap:round;stroke-linejoin:round;stroke-opacity:1.0000000" />
  <metadata
     id="metadata5">
    <rdf:RDF
       id="RDF5">
      <Work
         id="Work6"
         rdf:about="">
        <dc:title
           id="title7">Part of the Flat Icon Collection (Thu Aug 26 14:31:40 2004)</dc:title>
        <dc:description
           id="description9" />
        <dc:subject
           id="subject10">
          <rdf:Bag
             id="Bag11">
            <rdf:li
               id="li12" />
          </rdf:Bag>
        </dc:subject>
        <dc:publisher
           id="publisher13">
          <Agent
             id="Agent14"
             rdf:about="">
            <dc:title
               id="title15" />
          </Agent>
        </dc:publisher>
        <dc:creator
           id="creator16">
          <Agent
             id="Agent17"
             rdf:about="">
            <dc:title
               id="title18">Danny Allen</dc:title>
          </Agent>
        </dc:creator>
        <dc:rights
           id="rights20">
          <Agent
             id="Agent21"
             rdf:about="">
            <dc:title
               id="title22">Danny Allen</dc:title>
          </Agent>
        </dc:rights>
        <dc:date
           id="date24" />
        <dc:format
           id="format25">image/svg+xml</dc:format>
        <dc:type
           id="type27"
           rdf:resource="http://purl.org/dc/dcmitype/StillImage" />
        <license
           id="license28"
           rdf:resource="http://creativecommons.org/licenses/LGPL/2.1/">
          <dc:date
             id="date29" />
        </license>
        <dc:language
           id="language30">en</dc:language>
      </Work>
      <cc:Work
         id="Work33"
         rdf:about="">
        <dc:format
           id="format34">image/svg+xml</dc:format>
        <dc:type
           rdf:resource="http://purl.org/dc/dcmitype/StillImage"
           id="type36" />
      </cc:Work>
    </rdf:RDF>
  </metadata>
  <path
     id="text1312"
     d="M 24.081144,28.033571 L 24.081144,17.497824 C 24.081144,16.968433 24.222728,16.562147 24.505898,16.278964 C 24.789066,15.995809 25.158417,15.854224 25.613952,15.854210 C 25.995613,15.854224 26.303405,15.952718 26.537331,16.149691 C 26.777406,16.346692 27.174458,16.802225 27.728489,17.516292 L 32.816304,23.952239 L 32.853239,23.952239 L 32.853239,17.497824 C 32.853229,16.968433 32.994814,16.562147 33.277993,16.278964 C 33.561152,15.995809 33.930503,15.854224 34.386047,15.854210 C 34.847725,15.854224 35.217076,15.992731 35.494101,16.269731 C 35.777258,16.546757 35.918843,16.956121 35.918855,17.497824 L 35.918855,28.033571 C 35.918843,28.569132 35.777258,28.978496 35.494101,29.261665 C 35.217076,29.538678 34.847725,29.677185 34.386047,29.677185 C 34.115179,29.677185 33.884334,29.631016 33.693513,29.538678 C 33.508827,29.440185 33.321074,29.286288 33.130253,29.076989 C 32.939411,28.867691 32.653164,28.513729 32.271511,28.015104 L 27.183696,21.588390 L 27.146761,21.588390 L 27.146761,28.033571 C 27.146757,28.569132 27.005172,28.978496 26.722006,29.261665 C 26.444990,29.538678 26.075639,29.677185 25.613952,29.677185 C 25.164573,29.677185 24.795222,29.535600 24.505898,29.252431 C 24.222728,28.963106 24.081144,28.556820 24.081144,28.033571"
     style="font-size:18.910789;font-style:normal;font-variant:normal;font-weight:bold;font-stretch:normal;fill:#000000;fill-opacity:1.0000000;stroke:none;stroke-width:1.0000000pt;stroke-linecap:butt;stroke-linejoin:miter;stroke-opacity:1.0000000;font-family:VAG Rounded Black SSi;text-anchor:start;writing-mode:lr-tb" />
</svg>
